<svg width="969" height="248" viewBox="0 0 969 248" fill="none" xmlns="http://www.w3.org/2000/svg">
<rect width="969" height="248" fill="#F0E04B"/>
<path d="M47.6939 171.38C47.1619 170.232 45.9019 169.56 44.4179 169.56C41.2819 169.56 38.6779 172.472 38.6779 176.364C38.6779 179.612 40.4699 181.516 43.0179 181.516C44.3339 181.516 45.9299 180.928 46.8259 179.388C47.1059 180.48 47.9179 181.516 49.9899 181.516C54.0219 181.516 56.7659 177.68 56.7659 173.116C56.7659 166.676 51.6699 162.98 45.4819 162.98C38.3139 162.98 32.1819 168.076 32.1819 176.252C32.1819 183.308 36.8579 188.068 44.5299 188.068C48.9819 188.068 51.9779 186.612 53.8259 185.212L52.3979 183.14C50.4939 184.568 48.0579 185.744 44.6139 185.744C39.2099 185.744 34.9819 182.412 34.9819 176.224C34.9819 169.56 39.6019 165.276 45.5659 165.276C50.6339 165.276 54.0499 168.328 54.0499 173.312C54.0499 177.036 52.1179 179.248 50.2139 179.248C49.3179 179.248 48.8699 178.716 48.8699 177.904C48.8699 177.708 48.8979 177.512 48.9259 177.316L50.4099 169.812H47.9739L47.6939 171.38ZM46.6859 176.112C46.2379 178.156 45.0339 179.22 43.4659 179.22C42.1499 179.22 41.3939 178.072 41.3939 176.308C41.3939 173.928 42.8779 171.828 44.7259 171.828C46.0979 171.828 47.3019 172.976 46.8539 175.216L46.6859 176.112ZM71.6862 183C72.6942 180.396 75.8582 171.66 77.0902 167.824H77.1462V183H80.1982V163.4H75.6902L73.2262 170.428C71.9662 174.068 70.5942 177.96 70.2862 179.024C69.9222 177.988 68.4942 174.068 67.2342 170.428L64.7142 163.4H60.1782V183H63.2022V167.824H63.2862C64.4062 171.632 67.4302 179.668 68.6902 183H71.6862ZM83.8088 173.2C83.8088 179.5 87.4768 183.364 92.9368 183.364C98.4248 183.364 102.093 179.5 102.093 173.2C102.093 166.9 98.4248 163.036 92.9368 163.036C87.4768 163.036 83.8088 166.9 83.8088 173.2ZM87.2248 173.2C87.2248 168.916 89.1008 165.752 92.9368 165.752C96.8288 165.752 98.6768 168.916 98.6768 173.2C98.6768 177.484 96.8288 180.648 92.9368 180.648C89.1008 180.648 87.2248 177.484 87.2248 173.2ZM105.706 183H117.634V180.284H109.01V163.4H105.706V183ZM116.139 166.116H121.879V183H125.183V166.116H130.923V163.4H116.139V166.116ZM132.098 173.2C132.098 179.5 135.766 183.364 141.226 183.364C146.714 183.364 150.382 179.5 150.382 173.2C150.382 166.9 146.714 163.036 141.226 163.036C135.766 163.036 132.098 166.9 132.098 173.2ZM135.514 173.2C135.514 168.916 137.39 165.752 141.226 165.752C145.118 165.752 146.966 168.916 146.966 173.2C146.966 177.484 145.118 180.648 141.226 180.648C137.39 180.648 135.514 177.484 135.514 173.2ZM153.995 183H162.031C165.699 183 168.359 180.648 168.359 177.288C168.359 174.32 166.343 173.088 164.467 172.78C165.895 172.248 167.519 170.96 167.519 168.384C167.519 165.36 165.475 163.4 161.667 163.4H153.995V183ZM160.799 166.06C163.151 166.06 164.159 166.844 164.159 168.72C164.159 170.764 162.927 171.66 160.547 171.66H157.243V166.06H160.799ZM157.243 174.264H160.827C163.403 174.264 164.999 175.02 164.999 177.288C164.999 179.08 164.075 180.34 160.883 180.34H157.243V174.264ZM184.477 183V180.284H175.181V174.264H183.693V171.548H175.181V166.116H184.309V163.4H171.905V183H184.477ZM188.01 183H191.118V168.58H191.202C192.322 170.288 194.534 173.928 196.578 177.092C197.754 178.94 199.014 180.9 200.33 183H203.802V163.4H200.694V177.82H200.61C199.546 176.252 197.278 172.584 195.29 169.392L191.482 163.4H188.01V183ZM220.899 183V180.284H211.603V174.264H220.115V171.548H211.603V166.116H220.731V163.4H208.327V183H220.899ZM235.94 183C236.948 180.396 240.112 171.66 241.344 167.824H241.4V183H244.452V163.4H239.944L237.48 170.428C236.22 174.068 234.848 177.96 234.54 179.024C234.176 177.988 232.748 174.068 231.488 170.428L228.968 163.4H224.432V183H227.456V167.824H227.54C228.66 171.632 231.684 179.668 232.944 183H235.94ZM257.667 163.4H254.307L247.195 183H250.443L252.179 178.072H259.571L261.307 183H264.751L257.667 163.4ZM255.875 167.264C256.099 167.992 256.771 170.036 257.443 171.912L258.675 175.468H253.075L254.279 171.912C254.951 170.036 255.595 167.992 255.819 167.264H255.875ZM274.377 175.356H279.725V176.532C279.725 179.332 277.429 180.648 274.965 180.648C271.241 180.648 269.225 178.156 269.225 173.368C269.225 168.412 271.549 165.752 274.993 165.752C277.485 165.752 279.081 167.124 279.949 169.336L283.001 168.132C281.573 164.856 278.885 163.036 275.161 163.036C269.337 163.036 265.809 167.264 265.809 173.228C265.809 178.912 268.861 183.364 274.573 183.364C277.457 183.364 279.081 182.16 279.893 180.956V183H282.889V172.752H274.377V175.356Z" fill="black"/>
<path d="M731.69 99.088C731.69 96.208 733.706 94.336 737.93 94.336C742.202 94.336 744.458 96.496 744.986 100.096L750.698 98.8C749.594 93.088 744.938 89.776 738.074 89.776C730.922 89.776 725.882 93.28 725.882 99.568C725.882 105.712 730.538 108.208 737.69 109.216C743.45 110.128 745.466 111.568 745.466 114.64C745.466 118.24 742.682 120.064 738.41 120.064C733.226 120.064 730.97 116.992 730.73 113.632L725.114 114.496C725.354 120.016 730.106 124.624 738.41 124.624C746.186 124.624 751.322 120.496 751.322 114.304C751.322 108.208 747.29 105.616 739.562 104.32C733.754 103.408 731.69 102.208 731.69 99.088ZM778.956 124V119.344H763.02V109.024H777.612V104.368H763.02V95.056H778.668V90.4H757.404V124H778.956ZM798.117 110.896H807.285V112.912C807.285 117.712 803.349 119.968 799.125 119.968C792.741 119.968 789.285 115.696 789.285 107.488C789.285 98.992 793.269 94.432 799.173 94.432C803.445 94.432 806.181 96.784 807.669 100.576L812.901 98.512C810.453 92.896 805.845 89.776 799.461 89.776C789.477 89.776 783.429 97.024 783.429 107.248C783.429 116.992 788.661 124.624 798.453 124.624C803.397 124.624 806.181 122.56 807.573 120.496V124H812.709V106.432H798.117V110.896ZM832.84 124.624C841.672 124.624 845.656 120.064 845.656 111.856V90.4H839.992V111.904C839.992 116.272 838.072 119.968 832.84 119.968C827.608 119.968 825.688 116.272 825.688 111.904V90.4H820.024V111.856C820.024 120.064 824.008 124.624 832.84 124.624ZM853.263 124H858.927V90.4H853.263V124ZM865.132 107.2C865.132 117.856 871.036 124.624 880.78 124.624C887.692 124.624 892.012 121.264 894.268 115.744L888.892 113.776C887.5 117.616 884.956 119.92 880.732 119.92C874.396 119.92 870.988 114.688 870.988 107.2C870.988 99.616 874.444 94.48 880.732 94.48C885.148 94.48 887.644 96.976 888.94 100.768L894.364 98.848C892.204 93.04 887.788 89.776 880.876 89.776C871.084 89.776 865.132 96.592 865.132 107.2ZM899.435 124H905.099V90.4H899.435V124ZM571.612 149.088C571.612 146.208 573.628 144.336 577.852 144.336C582.124 144.336 584.38 146.496 584.908 150.096L590.62 148.8C589.516 143.088 584.86 139.776 577.996 139.776C570.844 139.776 565.804 143.28 565.804 149.568C565.804 155.712 570.46 158.208 577.612 159.216C583.372 160.128 585.388 161.568 585.388 164.64C585.388 168.24 582.604 170.064 578.332 170.064C573.148 170.064 570.892 166.992 570.652 163.632L565.036 164.496C565.276 170.016 570.028 174.624 578.332 174.624C586.108 174.624 591.244 170.496 591.244 164.304C591.244 158.208 587.212 155.616 579.484 154.32C573.676 153.408 571.612 152.208 571.612 149.088ZM609.715 174.624C618.547 174.624 622.531 170.064 622.531 161.856V140.4H616.867V161.904C616.867 166.272 614.947 169.968 609.715 169.968C604.483 169.968 602.563 166.272 602.563 161.904V140.4H596.899V161.856C596.899 170.064 600.883 174.624 609.715 174.624ZM640.919 174H646.583V140.4H640.919V174ZM654.372 174H659.7V149.28H659.844C661.764 152.208 665.556 158.448 669.06 163.872C671.076 167.04 673.236 170.4 675.492 174H681.444V140.4H676.116V165.12H675.972C674.148 162.432 670.26 156.144 666.852 150.672L660.324 140.4H654.372V174ZM694.097 149.088C694.097 146.208 696.113 144.336 700.337 144.336C704.609 144.336 706.865 146.496 707.393 150.096L713.105 148.8C712.001 143.088 707.345 139.776 700.481 139.776C693.329 139.776 688.289 143.28 688.289 149.568C688.289 155.712 692.945 158.208 700.097 159.216C705.857 160.128 707.873 161.568 707.873 164.64C707.873 168.24 705.089 170.064 700.817 170.064C695.633 170.064 693.377 166.992 693.137 163.632L687.521 164.496C687.761 170.016 692.513 174.624 700.817 174.624C708.593 174.624 713.729 170.496 713.729 164.304C713.729 158.208 709.697 155.616 701.969 154.32C696.161 153.408 694.097 152.208 694.097 149.088ZM715.711 145.056H725.551V174H731.215V145.056H741.055V140.4H715.711V145.056ZM757.377 140.4H751.617L739.425 174H744.993L747.969 165.552H760.641L763.617 174H769.521L757.377 140.4ZM754.305 147.024C754.689 148.272 755.841 151.776 756.993 154.992L759.105 161.088H749.505L751.569 154.992C752.721 151.776 753.825 148.272 754.209 147.024H754.305ZM786.023 160.896H795.191V162.912C795.191 167.712 791.255 169.968 787.031 169.968C780.647 169.968 777.191 165.696 777.191 157.488C777.191 148.992 781.175 144.432 787.079 144.432C791.351 144.432 794.087 146.784 795.575 150.576L800.807 148.512C798.359 142.896 793.751 139.776 787.367 139.776C777.383 139.776 771.335 147.024 771.335 157.248C771.335 166.992 776.567 174.624 786.359 174.624C791.303 174.624 794.087 172.56 795.479 170.496V174H800.615V156.432H786.023V160.896ZM832.17 150C832.17 142.56 826.026 140.4 820.17 140.4H808.122V174H813.738V160.224H819.258L827.034 174H833.514L825.114 159.552C829.386 158.256 832.17 154.992 832.17 150ZM826.41 150.144C826.41 153.6 824.394 155.664 819.642 155.664H813.738V145.056H819.258C823.914 145.056 826.41 146.496 826.41 150.144ZM853.94 140.4H848.18L835.988 174H841.556L844.532 165.552H857.204L860.18 174H866.084L853.94 140.4ZM850.868 147.024C851.252 148.272 852.404 151.776 853.556 154.992L855.668 161.088H846.068L848.132 154.992C849.284 151.776 850.388 148.272 850.772 147.024H850.868ZM890.522 174C892.25 169.536 897.674 154.56 899.786 147.984H899.882V174H905.114V140.4H897.386L893.162 152.448C891.002 158.688 888.65 165.36 888.122 167.184C887.498 165.408 885.05 158.688 882.89 152.448L878.57 140.4H870.794V174H875.978V147.984H876.122C878.042 154.512 883.226 168.288 885.386 174H890.522Z" fill="black"/>
<path d="M545.501 165.5C466.834 165 315.5 167.5 309.501 172.5C298.256 181.871 372.834 194 404.501 200.5C358.501 190.075 300.501 187.5 380.501 135.5" stroke="black" stroke-width="2"/>
<path d="M41.8947 74.9435V57.6731C41.8947 55.8852 42.302 54.4223 43.076 53.2845C43.8499 52.1466 44.9498 51.5777 46.3755 51.5777C49.1048 51.5777 50.4898 53.3657 50.4898 56.9823V74.9435H62.3844V57.6731C62.3844 55.8852 62.7918 54.4223 63.5658 53.2845C64.3397 52.1466 65.4396 51.5777 66.8653 51.5777C69.5946 51.5777 70.9795 53.3657 70.9795 56.9823V74.9435H82.8742V54.7474C82.8742 50.8463 81.9373 47.7173 80.0635 45.4011C78.1897 43.0442 75.3789 41.8657 71.5906 41.8657C67.0282 41.8657 63.4843 43.735 61.0809 47.4735H60.8772C59.1664 43.735 56.1112 41.8657 51.7526 41.8657C47.3124 41.8657 43.8907 43.7756 41.528 47.636H41.3244V42.8816H30V74.9435H41.8947V74.9435ZM120.106 58.9735C120.106 54.0159 118.517 49.9523 115.299 46.7421C112.122 43.5318 107.845 41.947 102.59 41.947C97.2944 41.947 93.0173 43.5318 89.7992 46.7421C86.5811 49.9523 84.9517 54.0159 84.9517 58.9735C84.9517 63.9311 86.5811 67.9947 89.7992 71.1643C93.0173 74.3339 97.2944 75.9594 102.59 75.9594C107.886 75.9594 112.122 74.3746 115.299 71.1643C118.477 67.9947 120.106 63.9311 120.106 58.9735ZM98.435 65.5972C97.4981 63.9717 97.05 61.7774 97.05 58.9735C97.05 56.1696 97.4981 53.9753 98.435 52.3498C99.3719 50.7244 100.716 49.9117 102.468 49.9117C104.26 49.9117 105.645 50.7244 106.582 52.3498C107.519 53.9753 108.008 56.1696 108.008 58.9329C108.008 61.6961 107.519 63.8905 106.582 65.5159C105.645 67.1413 104.26 67.9541 102.468 67.9541C100.675 68.0353 99.3312 67.2226 98.435 65.5972ZM134.649 30H122.428V74.9435H134.649V30ZM140.759 50.0336V65.6784C140.759 69.3763 141.696 71.9364 143.61 73.3587C145.484 74.8216 148.499 75.5124 152.572 75.5124C154.364 75.5124 156.32 75.2686 158.438 74.7403V66.0848C157.175 66.1661 156.116 66.2067 155.22 66.1661C154.324 66.1254 153.672 65.841 153.183 65.3534C152.694 64.8657 152.45 64.0936 152.45 63.0777V50.0742H158.56V42.8816H152.45V32.5194H140.8V42.8816H136.645V50.0336H140.759ZM194.814 58.9735C194.814 54.0159 193.226 49.9523 190.008 46.7421C186.83 43.5318 182.594 41.947 177.298 41.947C172.003 41.947 167.725 43.5318 164.507 46.7421C161.289 49.9523 159.66 54.0159 159.66 58.9735C159.66 63.9311 161.289 67.9947 164.507 71.1643C167.725 74.3339 172.003 75.9594 177.298 75.9594C182.594 75.9594 186.83 74.3746 190.008 71.1643C193.226 67.9947 194.814 63.9311 194.814 58.9735ZM173.143 65.5972C172.206 63.9717 171.758 61.7774 171.758 58.9735C171.758 56.1696 172.206 53.9753 173.143 52.3498C174.08 50.7244 175.424 49.9117 177.176 49.9117C178.968 49.9117 180.353 50.7244 181.29 52.3498C182.227 53.9753 182.716 56.1696 182.716 58.9329C182.716 61.6961 182.227 63.8905 181.29 65.5159C180.353 67.1413 178.968 67.9541 177.176 67.9541C175.424 68.0353 174.08 67.2226 173.143 65.5972ZM228.625 71.53C231.069 68.523 232.291 64.2968 232.291 58.8516C232.291 54.0159 231.069 49.9929 228.625 46.7421C226.18 43.4912 222.881 41.8657 218.685 41.8657C214.693 41.8657 211.556 43.3286 209.235 46.2138H209.031V30H197.136V74.9435H208.461V70.7986H208.583C210.62 74.2933 213.96 76 218.522 76C222.84 76 226.221 74.4965 228.625 71.53ZM208.624 58.7297C208.624 56.3728 209.194 54.4223 210.294 52.8375C211.394 51.2527 212.86 50.4806 214.652 50.4806C216.404 50.4806 217.789 51.212 218.767 52.6749C219.744 54.1378 220.233 56.1696 220.233 58.689C220.233 61.2491 219.744 63.2403 218.807 64.7032C217.87 66.1661 216.485 66.8975 214.693 66.8975C212.901 66.8975 211.434 66.1254 210.334 64.5813C209.235 63.0371 208.624 61.1272 208.624 58.7297ZM261.172 73.1148C264.553 70.9611 266.549 68.4011 267.282 65.394H255.754C254.858 66.9788 253.391 67.7915 251.273 67.7915C247.811 67.7915 245.733 65.8004 244.959 61.818H267.893C268.015 54.9505 266.142 49.7491 262.272 46.1731C259.135 43.288 255.184 41.8251 250.418 41.8251C245.367 41.8251 241.252 43.4505 238.075 46.6608C234.898 49.871 233.309 53.9346 233.309 58.8516C233.309 63.8092 234.938 67.8728 238.197 71.0424C241.456 74.212 245.693 75.8375 250.907 75.8375C254.899 75.8375 258.32 74.9028 261.172 73.1148ZM254.247 51.2933C255.184 52.3092 255.795 53.6908 256.039 55.5194H244.959C245.611 51.6996 247.526 49.7898 250.703 49.7898C252.129 49.7898 253.31 50.318 254.247 51.2933ZM270.215 42.8816V74.9435H282.15V57.6731C282.15 55.9258 282.599 54.4629 283.454 53.2845C284.35 52.1466 285.532 51.5371 286.998 51.5371C289.972 51.5371 291.479 53.3657 291.479 57.0636V74.9028H303.373V54.1784C303.373 50.3993 302.396 47.4329 300.481 45.1979C298.567 42.9629 295.756 41.8657 292.09 41.8657C287.853 41.8657 284.391 43.6537 281.743 47.2703H281.539V42.8816H270.215ZM333.273 73.1148C336.654 70.9611 338.65 68.4011 339.383 65.394H327.855C326.959 66.9788 325.493 67.7915 323.374 67.7915C319.912 67.7915 317.834 65.8004 317.06 61.818H339.994C340.117 54.9505 338.243 49.7491 334.373 46.1731C331.236 43.288 327.285 41.8251 322.519 41.8251C317.468 41.8251 313.354 43.4505 310.176 46.6608C306.999 49.871 305.41 53.9346 305.41 58.8516C305.41 63.8092 307.04 67.8728 310.298 71.0424C313.557 74.212 317.794 75.8375 323.008 75.8375C327.041 75.8375 330.462 74.9028 333.273 73.1148ZM326.389 51.2933C327.326 52.3092 327.937 53.6908 328.181 55.5194H317.101C317.753 51.6996 319.668 49.7898 322.845 49.7898C324.271 49.7898 325.452 50.318 326.389 51.2933Z" fill="black"/>
</svg>
