<svg width="18" height="18" viewBox="0 0 18 18" fill="none" xmlns="http://www.w3.org/2000/svg">
<path fill-rule="evenodd" clip-rule="evenodd" d="M9 18C13.9706 18 18 13.9706 18 9C18 4.02944 13.9706 0 9 0C4.02944 0 0 4.02944 0 9C0 13.9706 4.02944 18 9 18ZM7.49827 9.00021C7.49827 8.1739 8.17258 7.49957 8.99888 7.49957C9.82517 7.49957 10.4995 8.1739 10.4995 9.00021C10.4995 9.82652 9.82517 10.5008 8.99888 10.5008C8.17258 10.5008 7.49827 9.82652 7.49827 9.00021ZM13.4998 8.77287C13.4997 8.84858 13.4996 8.92435 13.4996 9.00021C13.4996 9.08503 13.4997 9.16975 13.4998 9.25438C13.5006 9.78982 13.5014 10.3221 13.4703 10.8577C13.4354 11.5782 13.2722 12.2165 12.7442 12.7445C12.2174 13.2713 11.5779 13.4357 10.8575 13.4706C10.3129 13.5012 9.77179 13.5006 9.2273 13.5C9.15161 13.5 9.07585 13.4999 9 13.4999C8.92431 13.4999 8.84869 13.5 8.77311 13.5C8.22935 13.5006 7.68811 13.5012 7.14253 13.4706C6.42206 13.4357 5.78376 13.2725 5.25579 12.7445C4.72895 12.2176 4.56459 11.5782 4.52969 10.8577C4.49905 10.3131 4.49965 9.77109 4.50025 9.22712C4.50034 9.15152 4.50042 9.07589 4.50042 9.00021C4.50042 8.92451 4.50034 8.84889 4.50025 8.77331C4.49965 8.22954 4.49905 7.68829 4.52969 7.1427C4.56459 6.42222 4.72782 5.78391 5.25579 5.25593C5.78264 4.72907 6.42206 4.56471 7.14253 4.52981C7.68711 4.49917 8.22821 4.49977 8.7727 4.50037C8.8484 4.50046 8.92416 4.50054 9 4.50054C9.07569 4.50054 9.15132 4.50046 9.22689 4.50037C9.77065 4.49977 10.3119 4.49917 10.8575 4.52981C11.5779 4.56471 12.2162 4.72795 12.7442 5.25593C13.2711 5.78278 13.4354 6.42222 13.4703 7.1427C13.501 7.68728 13.5004 8.22838 13.4998 8.77287ZM6.68998 9.00021C6.68998 10.2779 7.72116 11.3091 8.99888 11.3091C10.2766 11.3091 11.3078 10.2779 11.3078 9.00021C11.3078 7.72247 10.2766 6.69127 8.99888 6.69127C7.72116 6.69127 6.68998 7.72247 6.68998 9.00021ZM10.8631 6.59671C10.8631 6.89504 11.104 7.13595 11.4023 7.13595C11.4732 7.13604 11.5433 7.12215 11.6088 7.09508C11.6743 7.06801 11.7337 7.0283 11.7838 6.97821C11.8339 6.92812 11.8736 6.86864 11.9007 6.80317C11.9278 6.73771 11.9417 6.66755 11.9416 6.59671C11.9416 6.29838 11.7007 6.05747 11.4023 6.05747C11.104 6.05747 10.8631 6.29838 10.8631 6.59671Z" fill="white"/>
</svg>
