<svg width="647" height="96" viewBox="0 0 647 96" fill="none" xmlns="http://www.w3.org/2000/svg">
<path d="M24.8253 93.7951V57.7527C24.8253 54.0212 25.6755 50.9682 27.2908 48.5936C28.9062 46.2191 31.2017 45.0318 34.1773 45.0318C39.8735 45.0318 42.7641 48.7633 42.7641 56.311V93.7951H67.5894V57.7527C67.5894 54.0212 68.4396 50.9682 70.055 48.5936C71.6703 46.2191 73.9658 45.0318 76.9414 45.0318C82.6377 45.0318 85.5283 48.7633 85.5283 56.311V93.7951H110.354V51.6466C110.354 43.5053 108.398 36.9753 104.487 32.1413C100.576 27.2226 94.7102 24.7633 86.8036 24.7633C77.2815 24.7633 69.8849 28.6643 64.8689 36.4664H64.4438C60.873 28.6643 54.4966 24.7633 45.3997 24.7633C36.1327 24.7633 28.9912 28.7491 24.0601 36.8057H23.635V26.8834H0V93.7951H24.8253ZM188.06 60.4664C188.06 50.1201 184.744 41.6396 178.028 34.9399C171.397 28.2403 162.47 24.9329 151.502 24.9329C140.45 24.9329 131.523 28.2403 124.807 34.9399C118.09 41.6396 114.69 50.1201 114.69 60.4664C114.69 70.8127 118.09 79.2933 124.807 85.9081C131.523 92.523 140.45 95.9152 151.502 95.9152C162.555 95.9152 171.397 92.6078 178.028 85.9081C184.659 79.2933 188.06 70.8127 188.06 60.4664ZM142.831 74.2897C140.875 70.8975 139.94 66.318 139.94 60.4664C139.94 54.6148 140.875 50.0353 142.831 46.6431C144.786 43.2509 147.592 41.5548 151.247 41.5548C154.988 41.5548 157.879 43.2509 159.834 46.6431C161.79 50.0353 162.81 54.6148 162.81 60.3816C162.81 66.1484 161.79 70.7279 159.834 74.1201C157.879 77.5124 154.988 79.2085 151.247 79.2085C147.507 79.3781 144.701 77.682 142.831 74.2897ZM218.412 0H192.906V93.7951H218.412V0ZM231.164 41.8092V74.4594C231.164 82.1767 233.12 87.5194 237.116 90.4876C241.027 93.5406 247.318 94.9823 255.82 94.9823C259.56 94.9823 263.641 94.4735 268.062 93.371V75.3074C265.427 75.477 263.216 75.5618 261.346 75.477C259.475 75.3922 258.115 74.7986 257.095 73.7809C256.075 72.7633 255.565 71.1519 255.565 69.0318V41.894H268.317V26.8834H255.565V5.25795H231.249V26.8834H222.578V41.8092H231.164ZM343.984 60.4664C343.984 50.1201 340.668 41.6396 333.951 34.9399C327.32 28.2403 318.478 24.9329 307.426 24.9329C296.373 24.9329 287.446 28.2403 280.73 34.9399C274.014 41.6396 270.613 50.1201 270.613 60.4664C270.613 70.8127 274.014 79.2933 280.73 85.9081C287.446 92.523 296.373 95.9152 307.426 95.9152C318.478 95.9152 327.32 92.6078 333.951 85.9081C340.668 79.2933 343.984 70.8127 343.984 60.4664ZM298.754 74.2897C296.798 70.8975 295.863 66.318 295.863 60.4664C295.863 54.6148 296.798 50.0353 298.754 46.6431C300.709 43.2509 303.515 41.5548 307.171 41.5548C310.911 41.5548 313.802 43.2509 315.757 46.6431C317.713 50.0353 318.733 54.6148 318.733 60.3816C318.733 66.1484 317.713 70.7279 315.757 74.1201C313.802 77.5124 310.911 79.2085 307.171 79.2085C303.515 79.3781 300.709 77.682 298.754 74.2897ZM414.549 86.6714C419.65 80.3958 422.2 71.576 422.2 60.212C422.2 50.1201 419.65 41.7244 414.549 34.9399C409.448 28.1555 402.561 24.7633 393.804 24.7633C385.472 24.7633 378.926 27.8163 374.08 33.8375H373.655V0H348.83V93.7951H372.465V85.1449H372.72C376.971 92.4382 383.942 96 393.464 96C402.476 96 409.533 92.8622 414.549 86.6714ZM372.805 59.9576C372.805 55.0389 373.995 50.9682 376.29 47.6608C378.586 44.3534 381.647 42.7421 385.387 42.7421C389.043 42.7421 391.934 44.2686 393.974 47.3216C396.015 50.3746 397.035 54.6148 397.035 59.8728C397.035 65.2155 396.015 69.371 394.059 72.424C392.104 75.477 389.213 77.0035 385.472 77.0035C381.732 77.0035 378.671 75.3922 376.375 72.1696C374.08 68.947 372.805 64.9611 372.805 59.9576ZM482.478 89.9788C489.535 85.4841 493.701 80.1413 495.231 73.8657H471.171C469.3 77.1731 466.24 78.8693 461.819 78.8693C454.592 78.8693 450.256 74.7138 448.641 66.4028H496.506C496.761 52.0707 492.85 41.2155 484.774 33.7527C478.227 27.7314 469.98 24.6784 460.033 24.6784C449.491 24.6784 440.904 28.0707 434.273 34.7703C427.641 41.47 424.326 49.9505 424.326 60.212C424.326 70.5583 427.726 79.0389 434.528 85.6537C441.329 92.2686 450.171 95.6608 461.054 95.6608C469.385 95.6608 476.527 93.7102 482.478 89.9788ZM468.025 44.4382C469.98 46.5583 471.256 49.4417 471.766 53.2579H448.641C450.001 45.2862 453.997 41.3004 460.628 41.3004C463.604 41.3004 466.07 42.4028 468.025 44.4382ZM501.352 26.8834V93.7951H526.262V57.7527C526.262 54.106 527.198 51.053 528.983 48.5936C530.853 46.2191 533.319 44.947 536.38 44.947C542.586 44.947 545.732 48.7632 545.732 56.4806V93.7103H570.557V50.4594C570.557 42.5724 568.516 36.3816 564.521 31.7173C560.525 27.053 554.659 24.7633 547.007 24.7633C538.165 24.7633 530.938 28.4947 525.412 36.0424H524.987V26.8834H501.352ZM632.96 89.9788C640.017 85.4841 644.183 80.1413 645.713 73.8657H621.653C619.782 77.1731 616.722 78.8693 612.301 78.8693C605.074 78.8693 600.738 74.7138 599.123 66.4028H646.988C647.243 52.0707 643.333 41.2155 635.256 33.7527C628.709 27.7314 620.463 24.6784 610.515 24.6784C599.973 24.6784 591.386 28.0707 584.755 34.7703C578.124 41.47 574.808 49.9505 574.808 60.212C574.808 70.5583 578.209 79.0389 585.01 85.6537C591.811 92.2686 600.653 95.6608 611.536 95.6608C619.953 95.6608 627.094 93.7102 632.96 89.9788ZM618.592 44.4382C620.548 46.5583 621.823 49.4417 622.333 53.2579H599.208C600.568 45.2862 604.564 41.3004 611.196 41.3004C614.171 41.3004 616.637 42.4028 618.592 44.4382Z" fill="black"/>
</svg>
