<svg width="170" height="28" viewBox="0 0 170 28" fill="none" xmlns="http://www.w3.org/2000/svg">
<path d="M0.82 8.38H6.105V11.285H6.21C6.81667 10.165 7.56333 9.31333 8.45 8.73C9.36 8.14667 10.48 7.855 11.81 7.855C14.26 7.855 15.9633 9.03333 16.92 11.39H16.99C17.76 10.13 18.635 9.23167 19.615 8.695C20.6183 8.135 21.715 7.855 22.905 7.855C24.9817 7.855 26.545 8.485 27.595 9.745C28.645 10.9817 29.17 12.6383 29.17 14.715V27H23.71V15.625C23.71 14.5983 23.465 13.805 22.975 13.245C22.5083 12.6617 21.8317 12.37 20.945 12.37C19.965 12.37 19.1833 12.7433 18.6 13.49C18.04 14.2367 17.76 15.205 17.76 16.395V27H12.265V15.625C12.265 14.5983 12.0317 13.805 11.565 13.245C11.1217 12.6617 10.445 12.37 9.535 12.37C8.555 12.37 7.77333 12.7433 7.19 13.49C6.60667 14.2367 6.315 15.205 6.315 16.395V27H0.82V8.38ZM40.2705 27.595C38.7771 27.595 37.4238 27.35 36.2105 26.86C34.9971 26.3467 33.9588 25.6467 33.0955 24.76C32.2321 23.8733 31.5671 22.835 31.1005 21.645C30.6338 20.4317 30.4005 19.125 30.4005 17.725C30.4005 16.325 30.6338 15.03 31.1005 13.84C31.5671 12.6267 32.2321 11.5767 33.0955 10.69C33.9588 9.80333 34.9971 9.115 36.2105 8.625C37.4238 8.11167 38.7771 7.855 40.2705 7.855C41.7405 7.855 43.0821 8.11167 44.2955 8.625C45.5088 9.115 46.5355 9.80333 47.3755 10.69C48.2388 11.5767 48.9038 12.6267 49.3705 13.84C49.8371 15.03 50.0705 16.325 50.0705 17.725C50.0705 19.125 49.8371 20.4317 49.3705 21.645C48.9038 22.835 48.2388 23.8733 47.3755 24.76C46.5355 25.6467 45.5088 26.3467 44.2955 26.86C43.0821 27.35 41.7405 27.595 40.2705 27.595ZM40.2355 23.605C41.6121 23.605 42.6621 23.0683 43.3855 21.995C44.1321 20.8983 44.5055 19.475 44.5055 17.725C44.5055 15.9517 44.1321 14.5167 43.3855 13.42C42.6621 12.3233 41.6121 11.775 40.2355 11.775C38.8355 11.775 37.7738 12.3233 37.0505 13.42C36.3271 14.5167 35.9655 15.9517 35.9655 17.725C35.9655 19.475 36.3271 20.8983 37.0505 21.995C37.7738 23.0683 38.8355 23.605 40.2355 23.605ZM51.5129 0.959999H57.0429V27H51.5129V0.959999ZM58.2205 8.38H61.0205V2.43H66.4105V8.38H70.0505V11.88H66.4105V21.12C66.4105 21.82 66.5855 22.2983 66.9355 22.555C67.3089 22.7883 67.8222 22.905 68.4755 22.905C68.6622 22.905 68.8722 22.905 69.1055 22.905C69.3389 22.8817 69.5489 22.8583 69.7355 22.835H70.0155V26.93C69.7122 26.9767 69.2922 27.035 68.7555 27.105C68.2189 27.175 67.5772 27.21 66.8305 27.21C65.9672 27.21 65.1739 27.14 64.4505 27C63.7505 26.8367 63.1439 26.5683 62.6305 26.195C62.1172 25.7983 61.7205 25.2967 61.4405 24.69C61.1605 24.06 61.0205 23.2667 61.0205 22.31V11.88H58.2205V8.38ZM80.5041 27.595C79.0107 27.595 77.6574 27.35 76.4441 26.86C75.2307 26.3467 74.1924 25.6467 73.3291 24.76C72.4657 23.8733 71.8007 22.835 71.3341 21.645C70.8674 20.4317 70.6341 19.125 70.6341 17.725C70.6341 16.325 70.8674 15.03 71.3341 13.84C71.8007 12.6267 72.4657 11.5767 73.3291 10.69C74.1924 9.80333 75.2307 9.115 76.4441 8.625C77.6574 8.11167 79.0107 7.855 80.5041 7.855C81.9741 7.855 83.3157 8.11167 84.5291 8.625C85.7424 9.115 86.7691 9.80333 87.6091 10.69C88.4724 11.5767 89.1374 12.6267 89.6041 13.84C90.0707 15.03 90.3041 16.325 90.3041 17.725C90.3041 19.125 90.0707 20.4317 89.6041 21.645C89.1374 22.835 88.4724 23.8733 87.6091 24.76C86.7691 25.6467 85.7424 26.3467 84.5291 26.86C83.3157 27.35 81.9741 27.595 80.5041 27.595ZM80.4691 23.605C81.8457 23.605 82.8957 23.0683 83.6191 21.995C84.3657 20.8983 84.7391 19.475 84.7391 17.725C84.7391 15.9517 84.3657 14.5167 83.6191 13.42C82.8957 12.3233 81.8457 11.775 80.4691 11.775C79.0691 11.775 78.0074 12.3233 77.2841 13.42C76.5607 14.5167 76.1991 15.9517 76.1991 17.725C76.1991 19.475 76.5607 20.8983 77.2841 21.995C78.0074 23.0683 79.0691 23.605 80.4691 23.605ZM102.701 27.595C101.441 27.595 100.31 27.3267 99.3064 26.79C98.3264 26.2533 97.5681 25.4133 97.0314 24.27H96.9614V27H91.6764V0.959999H97.1714V6.665C97.1714 7.45833 97.1481 8.24 97.1014 9.01C97.0781 9.75667 97.0431 10.41 96.9964 10.97H97.1014C97.7314 10.0133 98.4898 9.255 99.3764 8.695C100.263 8.135 101.36 7.855 102.666 7.855C103.88 7.855 104.976 8.1 105.956 8.59C106.936 9.08 107.776 9.76833 108.476 10.655C109.176 11.5183 109.713 12.5567 110.086 13.77C110.483 14.96 110.681 16.2667 110.681 17.69C110.681 19.23 110.495 20.6183 110.121 21.855C109.748 23.0683 109.211 24.1067 108.511 24.97C107.811 25.81 106.971 26.4633 105.991 26.93C105.011 27.3733 103.915 27.595 102.701 27.595ZM101.231 23.185C102.515 23.185 103.471 22.6833 104.101 21.68C104.755 20.6767 105.081 19.335 105.081 17.655C105.081 15.975 104.755 14.6217 104.101 13.595C103.471 12.545 102.503 12.02 101.196 12.02C100.473 12.02 99.8431 12.1717 99.3064 12.475C98.7931 12.755 98.3614 13.1517 98.0114 13.665C97.6614 14.155 97.4048 14.75 97.2414 15.45C97.0781 16.15 96.9964 16.8967 96.9964 17.69C96.9964 19.3233 97.3698 20.6533 98.1164 21.68C98.8631 22.6833 99.9014 23.185 101.231 23.185ZM120.975 27.56C119.458 27.56 118.093 27.315 116.88 26.825C115.666 26.3117 114.628 25.6117 113.765 24.725C112.925 23.8383 112.271 22.8 111.805 21.61C111.361 20.42 111.14 19.125 111.14 17.725C111.14 16.325 111.373 15.03 111.84 13.84C112.306 12.6267 112.96 11.5767 113.8 10.69C114.64 9.80333 115.643 9.115 116.81 8.625C117.976 8.11167 119.271 7.855 120.695 7.855C122.025 7.855 123.215 8.065 124.265 8.485C125.338 8.905 126.283 9.48833 127.1 10.235C128.15 11.2617 128.92 12.5333 129.41 14.05C129.9 15.5667 130.133 17.2467 130.11 19.09H116.53C116.716 20.49 117.183 21.5867 117.93 22.38C118.676 23.1733 119.715 23.57 121.045 23.57C121.908 23.57 122.608 23.4183 123.145 23.115C123.705 22.7883 124.136 22.3333 124.44 21.75H129.76C129.526 22.5667 129.153 23.3367 128.64 24.06C128.15 24.76 127.531 25.3783 126.785 25.915C126.061 26.4283 125.21 26.825 124.23 27.105C123.25 27.4083 122.165 27.56 120.975 27.56ZM120.695 11.74C119.435 11.74 118.478 12.1133 117.825 12.86C117.171 13.6067 116.751 14.6217 116.565 15.905H124.51C124.416 14.5983 124.031 13.5833 123.355 12.86C122.678 12.1133 121.791 11.74 120.695 11.74ZM136.784 11.215H136.889C137.473 10.095 138.243 9.255 139.199 8.695C140.179 8.135 141.323 7.855 142.629 7.855C144.683 7.855 146.269 8.485 147.389 9.745C148.533 10.9817 149.104 12.65 149.104 14.75V27H143.644V15.8C143.644 14.7733 143.376 13.9567 142.839 13.35C142.326 12.72 141.556 12.405 140.529 12.405C139.456 12.405 138.593 12.79 137.939 13.56C137.286 14.33 136.959 15.31 136.959 16.5V27H131.464V8.38H136.784V11.215ZM160.147 27.56C158.631 27.56 157.266 27.315 156.052 26.825C154.839 26.3117 153.801 25.6117 152.937 24.725C152.097 23.8383 151.444 22.8 150.977 21.61C150.534 20.42 150.312 19.125 150.312 17.725C150.312 16.325 150.546 15.03 151.012 13.84C151.479 12.6267 152.132 11.5767 152.972 10.69C153.812 9.80333 154.816 9.115 155.982 8.625C157.149 8.11167 158.444 7.855 159.867 7.855C161.197 7.855 162.387 8.065 163.437 8.485C164.511 8.905 165.456 9.48833 166.272 10.235C167.322 11.2617 168.092 12.5333 168.582 14.05C169.072 15.5667 169.306 17.2467 169.282 19.09H155.702C155.889 20.49 156.356 21.5867 157.102 22.38C157.849 23.1733 158.887 23.57 160.217 23.57C161.081 23.57 161.781 23.4183 162.317 23.115C162.877 22.7883 163.309 22.3333 163.612 21.75H168.932C168.699 22.5667 168.326 23.3367 167.812 24.06C167.322 24.76 166.704 25.3783 165.957 25.915C165.234 26.4283 164.382 26.825 163.402 27.105C162.422 27.4083 161.337 27.56 160.147 27.56ZM159.867 11.74C158.607 11.74 157.651 12.1133 156.997 12.86C156.344 13.6067 155.924 14.6217 155.737 15.905H163.682C163.589 14.5983 163.204 13.5833 162.527 12.86C161.851 12.1133 160.964 11.74 159.867 11.74Z" fill="white"/>
</svg>
