<svg width="392" height="96" viewBox="0 0 392 96" fill="none" xmlns="http://www.w3.org/2000/svg">
<path d="M4.16 32.44H16.24V39.08H16.48C17.8667 36.52 19.5733 34.5733 21.6 33.24C23.68 31.9067 26.24 31.24 29.28 31.24C34.88 31.24 38.7733 33.9333 40.96 39.32H41.12C42.88 36.44 44.88 34.3867 47.12 33.16C49.4133 31.88 51.92 31.24 54.64 31.24C59.3867 31.24 62.96 32.68 65.36 35.56C67.76 38.3867 68.96 42.1733 68.96 46.92V75H56.48V49C56.48 46.6533 55.92 44.84 54.8 43.56C53.7333 42.2267 52.1867 41.56 50.16 41.56C47.92 41.56 46.1333 42.4133 44.8 44.12C43.52 45.8267 42.88 48.04 42.88 50.76V75H30.32V49C30.32 46.6533 29.7867 44.84 28.72 43.56C27.7067 42.2267 26.16 41.56 24.08 41.56C21.84 41.56 20.0533 42.4133 18.72 44.12C17.3867 45.8267 16.72 48.04 16.72 50.76V75H4.16V32.44ZM94.3325 76.36C90.9192 76.36 87.8258 75.8 85.0525 74.68C82.2792 73.5067 79.9058 71.9067 77.9325 69.88C75.9592 67.8533 74.4392 65.48 73.3725 62.76C72.3058 59.9867 71.7725 57 71.7725 53.8C71.7725 50.6 72.3058 47.64 73.3725 44.92C74.4392 42.1467 75.9592 39.7467 77.9325 37.72C79.9058 35.6933 82.2792 34.12 85.0525 33C87.8258 31.8267 90.9192 31.24 94.3325 31.24C97.6925 31.24 100.759 31.8267 103.533 33C106.306 34.12 108.653 35.6933 110.573 37.72C112.546 39.7467 114.066 42.1467 115.133 44.92C116.199 47.64 116.733 50.6 116.733 53.8C116.733 57 116.199 59.9867 115.133 62.76C114.066 65.48 112.546 67.8533 110.573 69.88C108.653 71.9067 106.306 73.5067 103.533 74.68C100.759 75.8 97.6925 76.36 94.3325 76.36ZM94.2525 67.24C97.3992 67.24 99.7992 66.0133 101.453 63.56C103.159 61.0533 104.013 57.8 104.013 53.8C104.013 49.7467 103.159 46.4667 101.453 43.96C99.7992 41.4533 97.3992 40.2 94.2525 40.2C91.0525 40.2 88.6258 41.4533 86.9725 43.96C85.3192 46.4667 84.4925 49.7467 84.4925 53.8C84.4925 57.8 85.3192 61.0533 86.9725 63.56C88.6258 66.0133 91.0525 67.24 94.2525 67.24ZM120.029 15.48H132.669V75H120.029V15.48ZM135.361 32.44H141.761V18.84H154.081V32.44H162.401V40.44H154.081V61.56C154.081 63.16 154.481 64.2533 155.281 64.84C156.135 65.3733 157.308 65.64 158.801 65.64C159.228 65.64 159.708 65.64 160.241 65.64C160.775 65.5867 161.255 65.5333 161.681 65.48H162.321V74.84C161.628 74.9467 160.668 75.08 159.441 75.24C158.215 75.4 156.748 75.48 155.041 75.48C153.068 75.48 151.255 75.32 149.601 75C148.001 74.6267 146.615 74.0133 145.441 73.16C144.268 72.2533 143.361 71.1067 142.721 69.72C142.081 68.28 141.761 66.4667 141.761 64.28V40.44H135.361V32.44ZM186.295 76.36C182.882 76.36 179.788 75.8 177.015 74.68C174.242 73.5067 171.868 71.9067 169.895 69.88C167.922 67.8533 166.402 65.48 165.335 62.76C164.268 59.9867 163.735 57 163.735 53.8C163.735 50.6 164.268 47.64 165.335 44.92C166.402 42.1467 167.922 39.7467 169.895 37.72C171.868 35.6933 174.242 34.12 177.015 33C179.788 31.8267 182.882 31.24 186.295 31.24C189.655 31.24 192.722 31.8267 195.495 33C198.268 34.12 200.615 35.6933 202.535 37.72C204.508 39.7467 206.028 42.1467 207.095 44.92C208.162 47.64 208.695 50.6 208.695 53.8C208.695 57 208.162 59.9867 207.095 62.76C206.028 65.48 204.508 67.8533 202.535 69.88C200.615 71.9067 198.268 73.5067 195.495 74.68C192.722 75.8 189.655 76.36 186.295 76.36ZM186.215 67.24C189.362 67.24 191.762 66.0133 193.415 63.56C195.122 61.0533 195.975 57.8 195.975 53.8C195.975 49.7467 195.122 46.4667 193.415 43.96C191.762 41.4533 189.362 40.2 186.215 40.2C183.015 40.2 180.588 41.4533 178.935 43.96C177.282 46.4667 176.455 49.7467 176.455 53.8C176.455 57.8 177.282 61.0533 178.935 63.56C180.588 66.0133 183.015 67.24 186.215 67.24ZM237.032 76.36C234.152 76.36 231.565 75.7467 229.272 74.52C227.032 73.2933 225.299 71.3733 224.072 68.76H223.912V75H211.832V15.48H224.392V28.52C224.392 30.3333 224.339 32.12 224.232 33.88C224.179 35.5867 224.099 37.08 223.992 38.36H224.232C225.672 36.1733 227.405 34.44 229.432 33.16C231.459 31.88 233.965 31.24 236.952 31.24C239.725 31.24 242.232 31.8 244.472 32.92C246.712 34.04 248.632 35.6133 250.232 37.64C251.832 39.6133 253.059 41.9867 253.912 44.76C254.819 47.48 255.272 50.4667 255.272 53.72C255.272 57.24 254.845 60.4133 253.992 63.24C253.139 66.0133 251.912 68.3867 250.312 70.36C248.712 72.28 246.792 73.7733 244.552 74.84C242.312 75.8533 239.805 76.36 237.032 76.36ZM233.672 66.28C236.605 66.28 238.792 65.1333 240.232 62.84C241.725 60.5467 242.472 57.48 242.472 53.64C242.472 49.8 241.725 46.7067 240.232 44.36C238.792 41.96 236.579 40.76 233.592 40.76C231.939 40.76 230.499 41.1067 229.272 41.8C228.099 42.44 227.112 43.3467 226.312 44.52C225.512 45.64 224.925 47 224.552 48.6C224.179 50.2 223.992 51.9067 223.992 53.72C223.992 57.4533 224.845 60.4933 226.552 62.84C228.259 65.1333 230.632 66.28 233.672 66.28ZM278.799 76.28C275.333 76.28 272.213 75.72 269.439 74.6C266.666 73.4267 264.293 71.8267 262.319 69.8C260.399 67.7733 258.906 65.4 257.839 62.68C256.826 59.96 256.319 57 256.319 53.8C256.319 50.6 256.853 47.64 257.919 44.92C258.986 42.1467 260.479 39.7467 262.399 37.72C264.319 35.6933 266.613 34.12 269.279 33C271.946 31.8267 274.906 31.24 278.159 31.24C281.199 31.24 283.919 31.72 286.319 32.68C288.773 33.64 290.933 34.9733 292.799 36.68C295.199 39.0267 296.959 41.9333 298.079 45.4C299.199 48.8667 299.733 52.7067 299.679 56.92H268.639C269.066 60.12 270.133 62.6267 271.839 64.44C273.546 66.2533 275.919 67.16 278.959 67.16C280.933 67.16 282.533 66.8133 283.759 66.12C285.039 65.3733 286.026 64.3333 286.719 63H298.879C298.346 64.8667 297.493 66.6267 296.319 68.28C295.199 69.88 293.786 71.2933 292.079 72.52C290.426 73.6933 288.479 74.6 286.239 75.24C283.999 75.9333 281.519 76.28 278.799 76.28ZM278.159 40.12C275.279 40.12 273.093 40.9733 271.599 42.68C270.106 44.3867 269.146 46.7067 268.719 49.64H286.879C286.666 46.6533 285.786 44.3333 284.239 42.68C282.693 40.9733 280.666 40.12 278.159 40.12ZM314.936 38.92H315.176C316.509 36.36 318.269 34.44 320.456 33.16C322.696 31.88 325.309 31.24 328.296 31.24C332.989 31.24 336.616 32.68 339.176 35.56C341.789 38.3867 343.096 42.2 343.096 47V75H330.616V49.4C330.616 47.0533 330.002 45.1867 328.776 43.8C327.602 42.36 325.842 41.64 323.496 41.64C321.042 41.64 319.069 42.52 317.576 44.28C316.082 46.04 315.336 48.28 315.336 51V75H302.776V32.44H314.936V38.92ZM368.337 76.28C364.87 76.28 361.75 75.72 358.977 74.6C356.204 73.4267 353.83 71.8267 351.857 69.8C349.937 67.7733 348.444 65.4 347.377 62.68C346.364 59.96 345.857 57 345.857 53.8C345.857 50.6 346.39 47.64 347.457 44.92C348.524 42.1467 350.017 39.7467 351.937 37.72C353.857 35.6933 356.15 34.12 358.817 33C361.484 31.8267 364.444 31.24 367.697 31.24C370.737 31.24 373.457 31.72 375.857 32.68C378.31 33.64 380.47 34.9733 382.337 36.68C384.737 39.0267 386.497 41.9333 387.617 45.4C388.737 48.8667 389.27 52.7067 389.217 56.92H358.177C358.604 60.12 359.67 62.6267 361.377 64.44C363.084 66.2533 365.457 67.16 368.497 67.16C370.47 67.16 372.07 66.8133 373.297 66.12C374.577 65.3733 375.564 64.3333 376.257 63H388.417C387.884 64.8667 387.03 66.6267 385.857 68.28C384.737 69.88 383.324 71.2933 381.617 72.52C379.964 73.6933 378.017 74.6 375.777 75.24C373.537 75.9333 371.057 76.28 368.337 76.28ZM367.697 40.12C364.817 40.12 362.63 40.9733 361.137 42.68C359.644 44.3867 358.684 46.7067 358.257 49.64H376.417C376.204 46.6533 375.324 44.3333 373.777 42.68C372.23 40.9733 370.204 40.12 367.697 40.12Z" fill="white"/>
<rect x="284" y="75" width="105" height="21" fill="white"/>
<path d="M311.763 90L311.751 83.88L308.715 88.98H308.163L305.127 83.916V90H303.975V81.6H304.959L308.463 87.504L311.919 81.6H312.903L312.915 90H311.763ZM320.788 87.9H316.324L315.4 90H314.164L317.968 81.6H319.156L322.972 90H321.712L320.788 87.9ZM320.368 86.94L318.556 82.824L316.744 86.94H320.368ZM329.928 85.752H331.08V89.028C330.664 89.372 330.18 89.636 329.628 89.82C329.076 90.004 328.5 90.096 327.9 90.096C327.052 90.096 326.288 89.912 325.608 89.544C324.928 89.168 324.392 88.656 324 88.008C323.616 87.352 323.424 86.616 323.424 85.8C323.424 84.984 323.616 84.248 324 83.592C324.392 82.936 324.928 82.424 325.608 82.056C326.296 81.688 327.068 81.504 327.924 81.504C328.596 81.504 329.204 81.616 329.748 81.84C330.3 82.056 330.768 82.376 331.152 82.8L330.408 83.544C329.736 82.896 328.924 82.572 327.972 82.572C327.332 82.572 326.756 82.712 326.244 82.992C325.74 83.264 325.344 83.648 325.056 84.144C324.768 84.632 324.624 85.184 324.624 85.8C324.624 86.408 324.768 86.96 325.056 87.456C325.344 87.944 325.74 88.328 326.244 88.608C326.756 88.888 327.328 89.028 327.96 89.028C328.712 89.028 329.368 88.848 329.928 88.488V85.752ZM338.729 87.9H334.265L333.341 90H332.105L335.909 81.6H337.097L340.913 90H339.653L338.729 87.9ZM338.309 86.94L336.497 82.824L334.685 86.94H338.309ZM348.442 88.956V90H341.422V89.184L346.702 82.644H341.506V81.6H348.286V82.416L343.03 88.956H348.442ZM350.053 81.6H351.253V90H350.053V81.6ZM360.992 81.6V90H360.008L354.968 83.736V90H353.768V81.6H354.752L359.792 87.864V81.6H360.992ZM369.602 88.956V90H363.506V81.6H369.434V82.644H364.706V85.224H368.918V86.244H364.706V88.956H369.602Z" fill="black"/>
</svg>
