<svg width="18" height="18" viewBox="0 0 18 18" fill="none" xmlns="http://www.w3.org/2000/svg">
<path d="M9 0C4.02938 0 0 4.02938 0 9C0 13.9706 4.02938 18 9 18C13.9706 18 18 13.9706 18 9C18 4.02938 13.9706 0 9 0ZM9.61594 11.1328C9.03844 11.0887 8.79656 10.8028 8.34469 10.5291C8.09625 11.8331 7.7925 13.0837 6.8925 13.7372C6.61406 11.7647 7.29938 10.2853 7.61812 8.71313C7.07531 7.79906 7.68281 5.96062 8.82844 6.4125C10.2375 6.97125 7.60781 9.81094 9.37312 10.1663C11.2162 10.5356 11.9691 6.9675 10.8263 5.80875C9.17437 4.13344 6.01969 5.77031 6.40781 8.16844C6.50156 8.75437 7.10812 8.9325 6.64969 9.74156C5.59312 9.50719 5.27719 8.67375 5.31844 7.56281C5.38312 5.74406 6.9525 4.47 8.52563 4.29469C10.5159 4.07344 12.3834 5.025 12.6422 6.89812C12.9319 9.01125 11.7431 11.2978 9.61594 11.1328Z" fill="white"/>
</svg>
